PathFileType	4	(X/Y/Z)	D:\Long Term Storage\D'Arcy Smith\Coord13.trc
DataRate	CameraRate	NumFrames	NumMarkers	Units	OrigDataRate	OrigDataStartFrame	OrigNumFrames
120.00	120.00	      113	4	mm	120.00	1	      4795
Frame#	Time	M1			M2			M3			M4			
		X1	Y1	Z1	X2	Y2	Z2	X3	Y3	Z3	X4	Y4	Z4	

1	0.000	1053.66602	338.24530	204.50346	1622.21375	317.85974	699.89618							
2	0.008	1053.24011	334.87689	209.43527	1622.32739	314.55725	694.68243							
3	0.017	1053.04199	331.71683	214.39175	1623.08508	311.88889	688.91492							
4	0.025	1052.73694	328.25064	219.82507	1622.40015	308.47705	683.12341							
5	0.033	1052.39148	324.67731	225.37016	1622.61548	305.19226	676.67981							
6	0.042	1052.47510	320.67023	231.21570	1622.89990	302.07263	670.01904							
7	0.050	1052.08020	317.04120	237.24411	1623.19849	298.54446	662.86230							
8	0.058	1051.89417	313.29987	243.42973	1623.45874	295.42093	655.42871							
9	0.067	1052.08191	309.39279	249.79295	1623.42554	291.99469	647.30273							
10	0.075	1051.45032	305.70813	256.28842	1623.96960	289.44284	639.15857							
11	0.083	1051.48230	301.69519	263.08466	1623.91382	286.03073	630.23669							
12	0.092	1051.32092	297.89264	270.13080	1624.40308	283.67032	621.53412							
13	0.100	1051.08777	294.17667	277.29471	1624.39795	280.63229	611.89557							
14	0.108	1050.88281	290.66153	284.70566	1624.63550	278.06586	601.88727							
15	0.117	1050.67285	287.21500	292.46909	1624.92688	275.77856	591.22211							
16	0.125	1050.55798	283.92194	300.17337	1625.19385	273.56128	580.31537							
17	0.133	1050.71289	280.37592	308.59662	1625.43079	271.68811	568.73926							
18	0.142	1050.53345	277.28598	316.60742	1625.70129	269.89548	556.86810							
19	0.150	1050.53357	274.32437	324.46909	1625.90723	268.45892	544.63342							
20	0.158	1050.30359	271.47205	333.71390	1626.09570	267.26184	532.03015							
21	0.167	1050.20593	268.77612	342.09525	1626.30835	266.34177	518.96539							
22	0.175	1050.28638	266.09003	350.63641	1626.41541	265.91772	505.69595							
23	0.183	1050.09399	263.65726	359.35065	1626.51355	265.94733	492.07840							
24	0.192	1050.07336	261.40591	368.05301	1626.60474	266.38504	478.43451							
25	0.200	1050.01379	259.57214	376.93820	1626.57861	267.19968	463.79285							
26	0.208	1049.90344	257.98795	385.75610	1626.50867	268.61456	449.72070							
27	0.217	1049.89636	256.56201	394.59885	1626.40247	270.52023	435.47021							
28	0.225	1049.85742	255.44293	403.54868	1626.20374	272.89249	421.32367							
29	0.233	1049.89929	254.59254	412.11389	1625.95435	275.79666	407.16269							
30	0.242	1049.69409	254.01100	420.85120	1625.79211	279.18826	393.04327							
31	0.250	1049.90198	253.42885	429.37155	1625.53748	283.03586	379.11191							
32	0.258	1049.82642	253.15327	437.59125	1625.27429	287.30627	365.44073							
33	0.267	1049.98511	252.87628	445.88376	1624.97205	292.03354	352.06689							
34	0.275	1050.08972	252.82018	453.80011	1624.57788	296.95172	338.79837							
35	0.283	1050.21216	252.79163	461.63614	1624.62427	302.18619	327.15131							
36	0.292	1050.21167	253.17188	469.44742	1624.44495	308.06152	315.06635							
37	0.300	1050.35706	253.63655	476.82959	1624.23914	313.82242	303.67352							
38	0.308	1050.29773	254.33507	483.83078	1624.38025	320.23352	292.46896							
39	0.317	1050.30554	255.13380	490.70239	1624.24670	326.44305	282.13446							
40	0.325	1050.38513	255.98582	497.16534	1624.11597	332.62302	272.39813							
41	0.333	1050.69336	256.97769	503.43826	1623.84656	338.80847	263.29837							
42	0.342	1050.30286	258.49936	508.72955	1623.68469	344.67801	254.97679							
43	0.350	1050.41382	259.44537	514.10919	1623.57007	350.30115	247.34911							
44	0.358	1050.69470	260.24551	519.24707	1623.81946	355.85147	240.60986							
45	0.367	1050.56042	261.14273	523.99139	1623.68262	360.86389	234.35815							
46	0.375	1050.84790	261.45212	529.04382	1624.01721	365.43176	229.08481							
47	0.383	1050.87537	262.29474	532.93414	1624.10913	369.51880	224.67560							
48	0.392	1051.07385	262.97986	536.83240	1624.10498	372.99191	221.09531							
49	0.400	1050.95251	263.94308	540.51038	1624.69971	376.11969	218.42688							
50	0.408	1050.88269	264.61124	543.74298	1624.84912	378.43634	216.34827							
51	0.417	1050.67334	265.20264	546.37939	1625.26501	380.31793	215.17616							
52	0.425	1050.58875	265.83148	548.70410	1625.78406	381.37048	214.73302							
53	0.433	1050.54785	266.40939	550.80029	1626.16675	381.91574	214.89020							
54	0.442	1050.40649	266.84796	552.58417	1626.67603	381.80679	215.53696							
55	0.450	1050.37939	267.17059	553.95508	1627.27258	381.16083	216.84871							
56	0.458	1050.17529	267.46216	554.58447	1627.99866	380.08517	218.83330							
57	0.467	1049.79077	267.49088	554.94604	1628.41516	378.35321	220.97453							
58	0.475	1049.60815	267.47775	555.09491	1629.12073	376.08270	223.84772							
59	0.483	1049.57861	267.40778	554.94647	1629.89709	373.61377	227.09827							
60	0.492	1049.25476	267.23273	554.25525	1630.56006	370.55493	230.62260							
61	0.500	1048.79639	267.04950	553.14606	1631.06714	366.96136	234.54710							
62	0.508	1047.97974	267.36731	551.14050	1631.60999	363.21594	238.91681							
63	0.517	1047.57581	267.13635	549.34186	1632.44568	359.12430	243.83182							
64	0.525	1047.57568	266.63480	547.55444	1632.91931	354.84052	249.06322							
65	0.533	1046.95874	266.27203	544.89575	1633.22705	350.18414	254.56100							
66	0.542	1046.46179	265.49338	541.99597	1633.48181	345.44989	260.43427							
67	0.550	1046.22375	264.90228	539.21277	1633.69812	340.58325	266.85788							
68	0.558	1046.01550	264.17990	535.90375	1634.00610	335.60648	273.52817							
69	0.567	1045.86548	263.44202	532.38757	1634.23206	330.59027	280.64316							
70	0.575	1045.34094	262.66428	528.41553	1634.59509	325.56824	287.98596							
71	0.583	1045.11194	261.96783	524.27869	1634.77429	320.52481	295.85516							
72	0.592	1044.74561	261.22961	519.93317	1635.16711	315.48376	304.01459							
73	0.600	1044.51587	260.49728	515.47369	1635.23645	310.43274	312.45816							
74	0.608	1044.34009	259.97247	510.67459	1635.37878	305.44312	321.27484							
75	0.617	1044.08252	258.72202	506.04333	1635.10193	300.73804	330.22580							
76	0.625	1043.73291	258.35709	500.88052	1635.35962	295.99518	338.70313							
77	0.633	1043.61096	257.90875	495.49957	1635.55322	291.40997	348.62094							
78	0.642	1043.30237	257.46997	489.66144	1635.51660	286.84869	358.79257							
79	0.650	1042.95178	257.17123	483.70316	1635.56250	282.62012	369.20230							
80	0.658	1042.88562	256.96405	477.49854	1635.62585	278.76077	379.95004							
81	0.667	1042.80750	256.81866	470.91028	1635.63513	275.01144	391.02121							
82	0.675	1042.54858	256.88422	464.22485	1635.61548	271.55667	402.34470							
83	0.683	1042.70374	257.04285	457.36557	1635.68665	268.43936	413.91418							
84	0.692	1042.87500	257.31351	450.13187	1635.76355	265.52551	425.78275							
85	0.700	1043.29358	257.85724	442.49875	1635.91040	262.96600	437.87469							
86	0.708	1043.34241	258.25626	434.80649	1635.94885	260.61151	450.29803							
87	0.717	1043.89465	259.00955	426.82690	1636.10059	258.66306	462.78970							
88	0.725	1044.13391	259.85022	418.69180	1635.95215	257.12094	476.35440							
89	0.733	1044.74670	260.74255	410.56137	1635.90796	256.12613	489.10565							
90	0.742	1045.29663	261.92407	402.00320	1635.66528	255.69514	502.10992							
91	0.750	1045.74243	263.23145	393.40704	1635.24805	255.73911	515.12122							
92	0.758	1046.51013	264.62115	384.50558	1634.73340	256.35693	528.09790							
93	0.767	1047.00391	266.33774	375.77014	1634.24182	257.59299	540.98657							
94	0.775	1047.62866	268.04440	367.08319	1633.70947	259.44763	553.63965							
95	0.783	1048.45667	269.96237	357.96405	1633.14063	261.76154	566.04480							
96	0.792	1049.24548	272.01117	349.03644	1632.55945	264.46960	578.08392							
97	0.800	1050.00769	274.50751	340.05182	1631.94690	267.59409	589.83838							
98	0.808	1050.81250	276.91901	331.26648	1631.14246	271.25467	601.38251							
99	0.817	1051.74048	280.21146	320.95309	1630.94763	274.54813	612.26886							
100	0.825	1052.78284	283.08960	312.09460	1630.79602	278.43427	622.83942							
101	0.833	1053.84399	286.19836	303.31403	1630.08618	282.27527	632.88245							
102	0.842	1054.80786	289.43332	294.62823	1629.53064	286.05899	642.58057							
103	0.850	1055.97949	292.69290	285.96176	1628.91357	290.07944	651.87866							
104	0.858	1056.99133	296.02151	277.58862	1628.23511	294.14621	660.64740							
105	0.867	1058.01892	299.50952	269.45114	1628.24231	298.44406	668.95319							
106	0.875	1059.05408	302.93887	261.51889	1627.49146	302.50482	676.70300							
107	0.883	1059.92456	306.41278	253.88850	1626.53076	306.02826	683.84381							
108	0.892	1061.13538	309.58795	247.08969	1626.62561	310.19250	690.60065							
109	0.900	1061.23743	313.89374	239.57610	1626.26306	313.86536	696.81812							
110	0.908	1062.10913	317.57898	232.86343	1625.88403	317.36688	702.62427							
111	0.917	1063.02563	321.21002	226.65276	1625.44946	320.60007	707.81549							
112	0.925	1063.84094	324.82465	220.75464	1625.07068	323.76901	712.58447							
113	0.933	1064.56189	328.31546	215.29930	1624.58887	326.73273	716.84229							
